<?xml version="1.0" encoding="UTF-8"?>
<svg xmlns="http://www.w3.org/2000/svg" viewBox="0 0 465 635" width="465" height="635" aria-label="Culinary Water">
  <title>Culinary Water</title>
  <g id="culinary_water">
  <path d="M 429.42 11.596 L 428.879 388.271 L 427.309 416.619 L 419.332 441.529 L 408.762 490.185 L 410.141 490.485 L 420.696 441.894 L 428.708 416.877 L 430.291 388.311 L 430.831 11.598 L 429.42 11.596" fill="#00aeef" fill-rule="nonzero" />
  <path d="M 324.299 137.347 H 429.759 V 138.759 H 324.299 Z" fill="#00aeef" fill-rule="nonzero" />
  <path d="M 254.732 467.982 H 256.143 V 519.099 H 254.732 Z" fill="#00aeef" fill-rule="nonzero" />
  <path d="M 452.867 467.022 L 411.499 467.53 L 411.507 468.236 L 411.509 467.53 L 250.669 467.022 L 153.006 466.825 L 153.004 468.236 L 250.666 468.434 L 411.527 468.942 L 452.884 468.434 L 452.867 467.022" fill="#00aeef" fill-rule="nonzero" />
  <path d="M 152.977 468.126 L 201.335 528.082 L 240.538 574.798 L 280.492 623.304 L 281.582 622.407 L 241.623 573.896 L 202.419 527.178 L 201.879 527.632 L 202.428 527.189 L 154.075 467.24 L 152.977 468.126" fill="#00aeef" fill-rule="nonzero" />
  <path d="M 429.809 296.986 H 452.875 V 298.397 H 429.809 Z" fill="#00aeef" fill-rule="nonzero" />
  <path d="M 453.377 418.004 L 429.794 394.274 L 428.793 395.269 L 452.376 418.999 L 453.377 418.004" fill="#00aeef" fill-rule="nonzero" />
  </g>
</svg>