<?xml version="1.0" encoding="UTF-8"?>
<svg xmlns="http://www.w3.org/2000/svg" viewBox="0 0 465 635" width="465" height="635" aria-label="Natural Gas">
  <title>Natural Gas</title>
  <g id="natural_gas">
  <path d="M 272.551 622.063 L 142.996 464.031 L 142.45 464.479 L 143.005 464.043 C 143.005 464.043 136.781 456.104 129.984 447.53 C 126.586 443.243 123.044 438.796 120.065 435.103 C 117.084 431.407 114.675 428.474 113.507 427.176 C 111.222 424.637 106.231 419.041 100.679 413.251 C 95.123 407.458 89.023 401.478 84.44 398.119 C 79.886 394.784 72.204 390.088 65.19 385.645 C 61.685 383.424 58.349 381.269 55.671 379.392 C 54.333 378.453 53.158 377.584 52.214 376.816 C 51.27 376.05 50.554 375.377 50.152 374.875 C 46.509 370.365 44.032 365.84 43.569 362.516 L 42.172 362.716 C 42.724 366.504 45.329 371.125 49.053 375.76 C 49.571 376.401 50.339 377.109 51.324 377.911 C 54.76 380.704 60.852 384.586 67.092 388.514 C 73.326 392.436 79.701 396.397 83.606 399.257 C 88.041 402.503 94.135 408.462 99.661 414.228 C 105.191 419.996 110.171 425.578 112.458 428.12 C 113.576 429.362 115.994 432.303 118.967 435.989 C 123.429 441.521 129.162 448.754 133.778 454.602 C 136.086 457.526 138.116 460.104 139.568 461.951 C 141.02 463.798 141.893 464.911 141.895 464.914 L 141.905 464.927 L 271.46 622.957 L 272.551 622.063" fill="#8053a2" fill-rule="nonzero" />
  <path d="M 417.038 11.349 H 418.449 V 208.31 H 417.038 Z" fill="#8053a2" fill-rule="nonzero" />
  <path d="M 140.469 462.457 L 234.206 463.156 L 234.217 461.744 L 140.48 461.046 L 140.469 462.457" fill="#8053a2" fill-rule="nonzero" />
  </g>
</svg>