<?xml version="1.0" encoding="UTF-8"?>
<svg xmlns="http://www.w3.org/2000/svg" viewBox="0 0 465 635" width="465" height="635" aria-label="Project Site">
  <title>Project Site</title>
  <g id="project_site">
  <path d="M 350.852 175.618 L 350.839 181.712 L 352.956 181.716 L 352.969 175.622 L 350.852 175.618 M 350.831 185.689 L 350.818 191.783 L 352.935 191.787 L 352.948 185.693 L 350.831 185.689 M 350.81 195.76 L 350.797 201.854 L 352.914 201.858 L 352.927 195.764 L 350.81 195.76 M 350.789 205.831 L 350.776 211.925 L 352.893 211.929 L 352.906 205.835 L 350.789 205.831 M 350.768 215.902 L 350.755 221.996 L 352.872 222 L 352.884 215.906 L 350.768 215.902 M 350.746 225.973 L 350.734 232.067 L 352.85 232.071 L 352.863 225.977 L 350.746 225.973 M 350.725 236.044 L 350.712 242.138 L 352.829 242.142 L 352.842 236.048 L 350.725 236.044" fill="#231f20" fill-rule="nonzero" />
  <path d="M 347.448 254.637 L 344.496 259.861 L 346.339 260.902 L 349.291 255.678 L 347.448 254.637 M 342.585 263.242 L 339.633 268.466 L 341.476 269.508 L 344.428 264.283 L 342.585 263.242 M 337.722 271.847 L 334.77 277.072 L 336.613 278.113 L 339.565 272.889 L 337.722 271.847 M 332.859 280.453 L 329.907 285.677 L 331.75 286.718 L 334.702 281.494 L 332.859 280.453 M 327.997 289.058 L 325.045 294.282 L 326.888 295.324 L 329.84 290.1 L 327.997 289.058 M 323.134 297.664 L 320.182 302.888 L 322.025 303.929 L 324.977 298.705 L 323.134 297.664" fill="#231f20" fill-rule="nonzero" />
  <path d="M 316.717 316.913 L 316.768 323.326 L 318.885 323.309 L 318.834 316.896 L 316.717 316.913 M 316.802 327.622 L 316.853 334.034 L 318.97 334.018 L 318.919 327.605 L 316.802 327.622 M 316.887 338.331 L 316.937 344.743 L 319.054 344.727 L 319.004 338.314 L 316.887 338.331 M 316.971 349.039 L 317.022 355.452 L 319.139 355.436 L 319.088 349.023 L 316.971 349.039 M 317.056 359.748 L 317.107 366.161 L 319.224 366.145 L 319.173 359.732 L 317.056 359.748" fill="#231f20" fill-rule="nonzero" />
  <path d="M 309.967 372.774 L 303.066 372.922 L 303.112 375.039 L 310.012 374.891 L 309.967 372.774" fill="#231f20" fill-rule="nonzero" />
  <path d="M 288.825 376.745 L 283.995 379.824 L 285.133 381.609 L 289.963 378.53 L 288.825 376.745" fill="#231f20" fill-rule="nonzero" />
  <path d="M 278.046 391.131 H 280.163 V 397.165 H 278.046 Z" fill="#231f20" fill-rule="nonzero" />
  <path d="M 267.356 403.04 H 272.902 V 405.156 H 267.356 Z M 258.38 403.04 H 263.926 V 405.156 H 258.38 Z" fill="#231f20" fill-rule="nonzero" />
  <path d="M 244.524 412.324 L 238.016 412.384 L 238.036 414.501 L 244.543 414.441 L 244.524 412.324 M 233.626 412.424 L 227.119 412.484 L 227.138 414.601 L 233.645 414.541 L 233.626 412.424 M 222.728 412.525 L 216.221 412.585 L 216.24 414.702 L 222.748 414.642 L 222.728 412.525 M 211.83 412.625 L 205.323 412.685 L 205.343 414.802 L 211.85 414.742 L 211.83 412.625" fill="#231f20" fill-rule="nonzero" />
  <path d="M 190.472 411.332 L 184.141 410.101 L 183.737 412.179 L 190.068 413.41 L 190.472 411.332 M 179.887 409.274 L 173.556 408.043 L 173.152 410.121 L 179.483 411.352 L 179.887 409.274 M 169.303 407.216 L 162.972 405.985 L 162.568 408.063 L 168.899 409.294 L 169.303 407.216 M 158.719 405.158 L 152.387 403.927 L 151.983 406.005 L 158.314 407.236 L 158.719 405.158" fill="#231f20" fill-rule="nonzero" />
  <path d="M 139.478 398.304 L 134.398 394.553 L 133.141 396.256 L 138.221 400.007 L 139.478 398.304 M 131.021 392.06 L 125.941 388.31 L 124.684 390.013 L 129.764 393.763 L 131.021 392.06 M 122.564 385.817 L 117.484 382.067 L 116.227 383.77 L 121.307 387.52 L 122.564 385.817" fill="#231f20" fill-rule="nonzero" />
  <path d="M 105.374 382.473 L 101.142 386.577 L 102.616 388.097 L 106.848 383.992 L 105.374 382.473 M 98.43 389.208 L 94.199 393.312 L 95.673 394.832 L 99.904 390.727 L 98.43 389.208" fill="#231f20" fill-rule="nonzero" />
  <path d="M 83.189 396.785 L 77.085 395.989 L 76.811 398.089 L 82.915 398.884 L 83.189 396.785 M 73.081 395.467 L 66.977 394.672 L 66.703 396.771 L 72.807 397.567 L 73.081 395.467 M 62.972 394.15 L 56.869 393.354 L 56.595 395.453 L 62.699 396.249 L 62.972 394.15 M 52.864 392.832 L 46.761 392.036 L 46.487 394.135 L 52.591 394.931 L 52.864 392.832 M 42.756 391.514 L 36.652 390.719 L 36.379 392.818 L 42.482 393.613 L 42.756 391.514 M 32.648 390.196 L 26.544 389.401 L 26.271 391.5 L 32.374 392.296 L 32.648 390.196 M 22.54 388.879 L 16.436 388.083 L 16.163 390.182 L 22.266 390.978 L 22.54 388.879" fill="#231f20" fill-rule="nonzero" />
  <path d="M 6.203 395.621 L 4.501 402.104 L 6.549 402.641 L 8.251 396.158 L 6.203 395.621 M 3.337 406.539 L 1.634 413.022 L 3.682 413.559 L 5.384 407.077 L 3.337 406.539 M 0.47 417.457 L -1.233 423.94 L 0.815 424.477 L 2.517 417.995 L 0.47 417.457 M -2.397 428.375 L -4.099 434.858 L -2.052 435.396 L -0.35 428.913 L -2.397 428.375 M -5.264 439.293 L -6.966 445.776 L -4.919 446.314 L -3.216 439.831 L -5.264 439.293 M -8.131 450.211 L -9.833 456.694 L -7.786 457.232 L -6.083 450.749 L -8.131 450.211" fill="#231f20" fill-rule="nonzero" />
  <path d="M -3.525 464.626 L 2.635 463.711 L 2.324 461.618 L -3.836 462.532 L -3.525 464.626 M 6.7 463.108 L 12.859 462.194 L 12.548 460.1 L 6.389 461.014 L 6.7 463.108 M 16.924 461.59 L 23.084 460.676 L 22.773 458.582 L 16.614 459.496 L 16.924 461.59" fill="#231f20" fill-rule="nonzero" />
  <path d="M 37.583 459.649 L 44.002 459.669 L 44.009 457.552 L 37.589 457.533 L 37.583 459.649 M 48.305 459.682 L 54.725 459.702 L 54.732 457.585 L 48.312 457.565 L 48.305 459.682 M 59.028 459.715 L 65.448 459.734 L 65.454 457.618 L 59.034 457.598 L 59.028 459.715 M 69.751 459.748 L 76.17 459.767 L 76.177 457.65 L 69.757 457.631 L 69.751 459.748 M 80.473 459.78 L 86.893 459.8 L 86.899 457.683 L 80.48 457.663 L 80.473 459.78 M 91.196 459.813 L 97.616 459.833 L 97.622 457.716 L 91.202 457.696 L 91.196 459.813 M 101.918 459.846 L 108.338 459.865 L 108.345 457.749 L 101.925 457.729 L 101.918 459.846 M 112.641 459.879 L 119.061 459.898 L 119.067 457.781 L 112.647 457.762 L 112.641 459.879 M 123.364 459.911 L 129.783 459.931 L 129.79 457.814 L 123.37 457.794 L 123.364 459.911 M 134.086 459.944 L 140.506 459.964 L 140.512 457.847 L 134.093 457.827 L 134.086 459.944 M 144.809 459.977 L 151.229 459.996 L 151.235 457.88 L 144.815 457.86 L 144.809 459.977 M 155.531 460.01 L 161.951 460.029 L 161.958 457.912 L 155.538 457.893 L 155.531 460.01 M 166.254 460.042 L 172.674 460.062 L 172.68 457.945 L 166.261 457.925 L 166.254 460.042 M 176.977 460.075 L 183.396 460.095 L 183.403 457.978 L 176.983 457.958 L 176.977 460.075 M 187.699 460.108 L 194.119 460.127 L 194.125 458.01 L 187.706 457.991 L 187.699 460.108 M 198.422 460.141 L 204.842 460.16 L 204.848 458.043 L 198.428 458.024 L 198.422 460.141 M 209.145 460.173 L 215.564 460.193 L 215.571 458.076 L 209.151 458.056 L 209.145 460.173 M 219.867 460.206 L 226.287 460.226 L 226.293 458.109 L 219.874 458.089 L 219.867 460.206" fill="#231f20" fill-rule="nonzero" />
  <path d="M 232.744 445.192 H 234.861 V 451.638 H 232.744 Z M 232.744 434.417 H 234.861 V 440.863 H 232.744 Z" fill="#231f20" fill-rule="nonzero" />
  <path d="M 240.994 427.956 L 247.202 427.983 L 247.211 425.866 L 241.003 425.839 L 240.994 427.956 M 251.293 428.001 L 257.502 428.029 L 257.511 425.912 L 251.303 425.885 L 251.293 428.001 M 261.593 428.047 L 267.801 428.074 L 267.811 425.958 L 261.602 425.93 L 261.593 428.047 M 271.893 428.093 L 278.101 428.12 L 278.11 426.003 L 271.902 425.976 L 271.893 428.093 M 282.192 428.138 L 288.401 428.166 L 288.41 426.049 L 282.202 426.021 L 282.192 428.138 M 292.492 428.184 L 298.7 428.211 L 298.71 426.095 L 292.501 426.067 L 292.492 428.184 M 302.792 428.229 L 309 428.257 L 309.009 426.14 L 302.801 426.113 L 302.792 428.229 M 313.091 428.275 L 319.299 428.303 L 319.309 426.186 L 313.101 426.158 L 313.091 428.275 M 323.391 428.321 L 329.599 428.348 L 329.608 426.231 L 323.4 426.204 L 323.391 428.321 M 333.69 428.366 L 339.899 428.394 L 339.908 426.277 L 333.7 426.25 L 333.69 428.366" fill="#231f20" fill-rule="nonzero" />
  <path d="M 354.707 432.383 L 361.184 432.333 L 361.168 430.216 L 354.69 430.266 L 354.707 432.383 M 365.545 432.299 L 372.023 432.249 L 372.007 430.133 L 365.529 430.182 L 365.545 432.299 M 376.384 432.216 L 382.861 432.166 L 382.845 430.049 L 376.367 430.099 L 376.384 432.216 M 387.222 432.132 L 393.7 432.082 L 393.684 429.965 L 387.206 430.015 L 387.222 432.132 M 398.061 432.048 L 404.538 431.998 L 404.522 429.881 L 398.044 429.932 L 398.061 432.048" fill="#231f20" fill-rule="nonzero" />
  <path d="M 415.911 425.316 L 418.393 420.028 L 416.477 419.128 L 413.995 424.416 L 415.911 425.316" fill="#231f20" fill-rule="nonzero" />
  <path d="M 419.2 399.778 H 421.317 V 406.139 H 419.2 Z M 419.2 389.174 H 421.317 V 395.535 H 419.2 Z M 419.2 378.57 H 421.317 V 384.93 H 419.2 Z M 419.2 367.965 H 421.317 V 374.326 H 419.2 Z M 419.2 357.361 H 421.317 V 363.722 H 419.2 Z M 419.2 346.757 H 421.317 V 353.117 H 419.2 Z M 419.2 336.152 H 421.317 V 342.513 H 419.2 Z M 419.2 325.548 H 421.317 V 331.909 H 419.2 Z M 419.2 314.944 H 421.317 V 321.304 H 419.2 Z M 419.2 304.339 H 421.317 V 310.7 H 419.2 Z M 419.2 293.735 H 421.317 V 300.095 H 419.2 Z" fill="#231f20" fill-rule="nonzero" />
  <path d="M 421.292 270.97 L 421.27 264.856 L 419.153 264.864 L 419.175 270.978 L 421.292 270.97 M 421.255 260.859 L 421.234 254.745 L 419.117 254.752 L 419.139 260.866 L 421.255 260.859 M 421.219 250.747 L 421.197 244.633 L 419.08 244.641 L 419.102 250.755 L 421.219 250.747 M 421.183 240.636 L 421.161 234.522 L 419.044 234.529 L 419.066 240.644 L 421.183 240.636 M 421.147 230.525 L 421.125 224.41 L 419.008 224.418 L 419.03 230.532 L 421.147 230.525 M 421.11 220.413 L 421.088 214.299 L 418.972 214.307 L 418.993 220.421 L 421.11 220.413" fill="#231f20" fill-rule="nonzero" />
  <path d="M 404.721 195.111 H 406.838 V 200.813 H 404.721 Z" fill="#231f20" fill-rule="nonzero" />
  <path d="M 398.567 184.857 L 392.19 182.479 L 391.45 184.462 L 397.827 186.84 L 398.567 184.857 M 387.796 180.841 L 381.419 178.463 L 380.679 180.447 L 387.056 182.824 L 387.796 180.841 M 377.025 176.825 L 370.648 174.447 L 369.909 176.431 L 376.286 178.808 L 377.025 176.825 M 366.255 172.809 L 359.877 170.431 L 359.138 172.415 L 365.515 174.793 L 366.255 172.809" fill="#231f20" fill-rule="nonzero" />
  <path d="M 350.704 246.115 L 350.698 248.885 L 349.359 251.256 L 351.202 252.297 L 352.814 249.443 L 352.821 246.119 L 350.704 246.115 M 318.271 306.269 L 316.656 309.127 L 316.683 312.617 L 318.8 312.6 L 318.777 309.676 L 320.114 307.311 L 318.271 306.269 M 317.141 370.457 L 317.158 372.62 L 314.751 372.671 L 314.797 374.788 L 319.291 374.691 L 319.258 370.441 L 317.141 370.458 L 317.141 370.457 M 298.282 373.025 L 294.535 373.106 L 291.87 374.804 L 293.008 376.59 L 295.173 375.209 L 298.327 375.141 L 298.282 373.025 M 280.95 381.765 L 278.046 383.617 L 278.046 387.214 L 280.163 387.214 L 280.163 384.777 L 282.088 383.55 L 280.95 381.765 M 278.046 401.081 L 278.046 403.04 L 276.331 403.04 L 276.331 405.157 L 280.163 405.156 L 280.163 401.081 L 278.046 401.081 M 254.951 403.04 L 251.119 403.04 L 251.119 406.931 L 253.236 406.931 L 253.236 405.156 L 254.951 405.156 L 254.951 403.04 M 251.119 410.479 L 251.119 412.263 L 248.914 412.284 L 248.934 414.401 L 253.236 414.361 L 253.236 410.479 L 251.119 410.479 M 200.933 412.726 L 197.786 412.755 L 194.725 412.159 L 194.321 414.238 L 197.591 414.873 L 200.952 414.842 L 200.933 412.726 M 148.134 403.1 L 145.203 402.53 L 142.855 400.797 L 141.598 402.5 L 144.33 404.517 L 147.73 405.178 L 148.134 403.1 M 114.107 379.573 L 110.846 377.166 L 108.086 379.842 L 109.56 381.362 L 111.031 379.934 L 112.85 381.276 L 114.107 379.574 L 114.107 379.573 M 91.487 395.943 L 89.738 397.639 L 87.193 397.307 L 86.92 399.406 L 90.478 399.87 L 92.961 397.462 L 91.487 395.943 M 12.432 387.561 L 8.456 387.043 L 7.368 391.186 L 9.416 391.723 L 10.03 389.383 L 12.158 389.66 L 12.432 387.561 M -10.998 461.129 L -12.256 465.922 L -7.59 465.229 L -7.901 463.136 L -9.394 463.357 L -8.95 461.667 L -10.998 461.13 L -10.998 461.129 M 27.149 460.072 L 30.148 459.627 L 33.28 459.636 L 33.286 457.52 L 29.998 457.509 L 26.838 457.978 L 27.149 460.072 M 230.59 460.239 L 234.861 460.252 L 234.861 455.967 L 232.744 455.967 L 232.744 458.128 L 230.596 458.122 L 230.59 460.239 M 234.861 430.089 L 234.861 427.929 L 236.902 427.938 L 236.912 425.821 L 232.744 425.802 L 232.744 430.089 L 234.861 430.089 M 343.99 428.412 L 346.04 428.421 L 346.04 432.45 L 350.346 432.417 L 350.33 430.3 L 348.157 430.317 L 348.157 426.314 L 344 426.295 L 343.99 428.412 M 408.899 431.965 L 412.805 431.935 L 414.329 428.687 L 412.413 427.788 L 411.455 429.828 L 408.883 429.848 L 408.899 431.965 M 419.976 416.657 L 421.317 413.799 L 421.317 410.383 L 419.2 410.383 L 419.2 413.327 L 418.06 415.757 L 419.976 416.657 M 421.317 289.491 L 421.317 285.102 L 415.658 285.855 L 415.658 284.276 L 413.541 284.276 L 413.541 288.272 L 419.2 287.519 L 419.2 289.491 L 421.317 289.491 M 415.658 280.816 L 415.658 279.087 L 421.321 279.087 L 421.306 274.967 L 419.189 274.975 L 419.196 276.97 L 413.541 276.97 L 413.541 280.816 L 415.658 280.816 M 421.074 210.302 L 421.059 206.19 L 415.919 206.19 L 415.919 208.307 L 418.95 208.307 L 418.957 210.31 L 421.074 210.302 M 409.865 206.19 L 406.838 206.19 L 406.838 204.398 L 404.721 204.398 L 404.721 208.307 L 409.865 208.307 L 409.865 206.19 M 406.838 191.526 L 406.838 187.94 L 402.96 186.495 L 402.221 188.478 L 404.721 189.41 L 404.721 191.526 L 406.838 191.526 M 355.484 168.793 L 350.87 167.073 L 350.861 171.641 L 352.978 171.646 L 352.981 170.119 L 354.744 170.777 L 355.484 168.793" fill="#231f20" fill-rule="nonzero" />
  </g>
</svg>